<?xml version="1.0" encoding="UTF-8" standalone="no"?><!DOCTYPE svg PUBLIC "-//W3C//DTD SVG 1.1//EN" "http://www.w3.org/Graphics/SVG/1.1/DTD/svg11.dtd"><!-- Generated by graphviz version 2.40.1 (20161225.0304)
 --><!-- Title: G Pages: 1 --><svg xmlns="http://www.w3.org/2000/svg" xmlns:xlink="http://www.w3.org/1999/xlink" width="1936pt" height="548pt" viewBox="0.00 0.00 1936.35 548.00">
<g id="graph0" class="graph" transform="scale(1 1) rotate(0) translate(4 544)">
<title>G</title>
<polygon fill="#ffffff" stroke="transparent" points="-4,4 -4,-544 1932.3504,-544 1932.3504,4 -4,4"/>
<!-- 4860 -->
<g id="node1" class="node">
<title>4860</title>
<ellipse fill="#000000" stroke="#000000" cx="1028" cy="-522" rx="30.2015" ry="18"/>
<text text-anchor="middle" x="1028" y="-517.8" font-family="Times,serif" font-size="14.00" fill="#ffffff">4860</text>
</g>
<!-- 1669 -->
<g id="node2" class="node">
<title>1669</title>
<ellipse fill="#ff0000" stroke="#000000" cx="673" cy="-450" rx="30.2015" ry="18"/>
<text text-anchor="middle" x="673" y="-445.8" font-family="Times,serif" font-size="14.00" fill="#ffffff">1669</text>
</g>
<!-- 4860&#45;&gt;1669 -->
<g id="edge1" class="edge">
<title>4860-&gt;1669</title>
<path fill="none" stroke="#000000" d="M999.2496,-516.1689C935.8466,-503.3097 783.9552,-472.5036 712.0304,-457.916"/>
<polygon fill="#000000" stroke="#000000" points="712.515,-454.4431 702.0188,-455.8855 711.1235,-461.3034 712.515,-454.4431"/>
</g>
<!-- 7106 -->
<g id="node40" class="node">
<title>7106</title>
<ellipse fill="#ff0000" stroke="#000000" cx="1148" cy="-450" rx="30.2015" ry="18"/>
<text text-anchor="middle" x="1148" y="-445.8" font-family="Times,serif" font-size="14.00" fill="#ffffff">7106</text>
</g>
<!-- 4860&#45;&gt;7106 -->
<g id="edge39" class="edge">
<title>4860-&gt;7106</title>
<path fill="none" stroke="#000000" d="M1049.4536,-509.1278C1068.4476,-497.7314 1096.3792,-480.9725 1117.6599,-468.2041"/>
<polygon fill="#000000" stroke="#000000" points="1119.5534,-471.1497 1126.3275,-463.0035 1115.9518,-465.1472 1119.5534,-471.1497"/>
</g>
<!-- 819 -->
<g id="node3" class="node">
<title>819</title>
<ellipse fill="#000000" stroke="#000000" cx="280" cy="-378" rx="27" ry="18"/>
<text text-anchor="middle" x="280" y="-373.8" font-family="Times,serif" font-size="14.00" fill="#ffffff">819</text>
</g>
<!-- 1669&#45;&gt;819 -->
<g id="edge2" class="edge">
<title>1669-&gt;819</title>
<path fill="none" stroke="#000000" d="M643.7822,-444.6471C573.2749,-431.7298 393.9225,-398.8713 316.5007,-384.6872"/>
<polygon fill="#000000" stroke="#000000" points="316.7417,-381.1731 306.2746,-382.8137 315.4802,-388.0585 316.7417,-381.1731"/>
</g>
<!-- 2927 -->
<g id="node17" class="node">
<title>2927</title>
<ellipse fill="#000000" stroke="#000000" cx="673" cy="-378" rx="30.2015" ry="18"/>
<text text-anchor="middle" x="673" y="-373.8" font-family="Times,serif" font-size="14.00" fill="#ffffff">2927</text>
</g>
<!-- 1669&#45;&gt;2927 -->
<g id="edge16" class="edge">
<title>1669-&gt;2927</title>
<path fill="none" stroke="#000000" d="M673,-431.8314C673,-424.131 673,-414.9743 673,-406.4166"/>
<polygon fill="#000000" stroke="#000000" points="676.5001,-406.4132 673,-396.4133 669.5001,-406.4133 676.5001,-406.4132"/>
</g>
<!-- 283 -->
<g id="node4" class="node">
<title>283</title>
<ellipse fill="#000000" stroke="#000000" cx="171" cy="-306" rx="27" ry="18"/>
<text text-anchor="middle" x="171" y="-301.8" font-family="Times,serif" font-size="14.00" fill="#ffffff">283</text>
</g>
<!-- 819&#45;&gt;283 -->
<g id="edge3" class="edge">
<title>819-&gt;283</title>
<path fill="none" stroke="#000000" d="M260.7639,-365.2936C243.592,-353.9507 218.2349,-337.201 198.8473,-324.3946"/>
<polygon fill="#000000" stroke="#000000" points="200.6835,-321.4128 190.4104,-318.8216 196.8254,-327.2536 200.6835,-321.4128"/>
</g>
<!-- 905 -->
<g id="node13" class="node">
<title>905</title>
<ellipse fill="#000000" stroke="#000000" cx="280" cy="-306" rx="27" ry="18"/>
<text text-anchor="middle" x="280" y="-301.8" font-family="Times,serif" font-size="14.00" fill="#ffffff">905</text>
</g>
<!-- 819&#45;&gt;905 -->
<g id="edge12" class="edge">
<title>819-&gt;905</title>
<path fill="none" stroke="#000000" d="M280,-359.8314C280,-352.131 280,-342.9743 280,-334.4166"/>
<polygon fill="#000000" stroke="#000000" points="283.5001,-334.4132 280,-324.4133 276.5001,-334.4133 283.5001,-334.4132"/>
</g>
<!-- 215 -->
<g id="node5" class="node">
<title>215</title>
<ellipse fill="#ff0000" stroke="#000000" cx="99" cy="-234" rx="27" ry="18"/>
<text text-anchor="middle" x="99" y="-229.8" font-family="Times,serif" font-size="14.00" fill="#ffffff">215</text>
</g>
<!-- 283&#45;&gt;215 -->
<g id="edge4" class="edge">
<title>283-&gt;215</title>
<path fill="none" stroke="#000000" d="M155.7307,-290.7307C145.803,-280.803 132.6847,-267.6847 121.5637,-256.5637"/>
<polygon fill="#000000" stroke="#000000" points="123.7933,-253.8436 114.2473,-249.2473 118.8436,-258.7933 123.7933,-253.8436"/>
</g>
<!-- 564 -->
<g id="node9" class="node">
<title>564</title>
<ellipse fill="#ff0000" stroke="#000000" cx="171" cy="-234" rx="27" ry="18"/>
<text text-anchor="middle" x="171" y="-229.8" font-family="Times,serif" font-size="14.00" fill="#ffffff">564</text>
</g>
<!-- 283&#45;&gt;564 -->
<g id="edge8" class="edge">
<title>283-&gt;564</title>
<path fill="none" stroke="#000000" d="M171,-287.8314C171,-280.131 171,-270.9743 171,-262.4166"/>
<polygon fill="#000000" stroke="#000000" points="174.5001,-262.4132 171,-252.4133 167.5001,-262.4133 174.5001,-262.4132"/>
</g>
<!-- 2 -->
<g id="node6" class="node">
<title>2</title>
<ellipse fill="#000000" stroke="#000000" cx="27" cy="-162" rx="27" ry="18"/>
<text text-anchor="middle" x="27" y="-157.8" font-family="Times,serif" font-size="14.00" fill="#ffffff">2</text>
</g>
<!-- 215&#45;&gt;2 -->
<g id="edge5" class="edge">
<title>215-&gt;2</title>
<path fill="none" stroke="#000000" d="M83.7307,-218.7307C73.803,-208.803 60.6847,-195.6847 49.5637,-184.5637"/>
<polygon fill="#000000" stroke="#000000" points="51.7933,-181.8436 42.2473,-177.2473 46.8436,-186.7933 51.7933,-181.8436"/>
</g>
<!-- 234 -->
<g id="node8" class="node">
<title>234</title>
<ellipse fill="#000000" stroke="#000000" cx="99" cy="-162" rx="27" ry="18"/>
<text text-anchor="middle" x="99" y="-157.8" font-family="Times,serif" font-size="14.00" fill="#ffffff">234</text>
</g>
<!-- 215&#45;&gt;234 -->
<g id="edge7" class="edge">
<title>215-&gt;234</title>
<path fill="none" stroke="#000000" d="M99,-215.8314C99,-208.131 99,-198.9743 99,-190.4166"/>
<polygon fill="#000000" stroke="#000000" points="102.5001,-190.4132 99,-180.4133 95.5001,-190.4133 102.5001,-190.4132"/>
</g>
<!-- 133 -->
<g id="node7" class="node">
<title>133</title>
<ellipse fill="#ff0000" stroke="#000000" cx="27" cy="-90" rx="27" ry="18"/>
<text text-anchor="middle" x="27" y="-85.8" font-family="Times,serif" font-size="14.00" fill="#ffffff">133</text>
</g>
<!-- 2&#45;&gt;133 -->
<g id="edge6" class="edge">
<title>2-&gt;133</title>
<path fill="none" stroke="#000000" d="M27,-143.8314C27,-136.131 27,-126.9743 27,-118.4166"/>
<polygon fill="#000000" stroke="#000000" points="30.5001,-118.4132 27,-108.4133 23.5001,-118.4133 30.5001,-118.4132"/>
</g>
<!-- 388 -->
<g id="node10" class="node">
<title>388</title>
<ellipse fill="#000000" stroke="#000000" cx="171" cy="-162" rx="27" ry="18"/>
<text text-anchor="middle" x="171" y="-157.8" font-family="Times,serif" font-size="14.00" fill="#ffffff">388</text>
</g>
<!-- 564&#45;&gt;388 -->
<g id="edge9" class="edge">
<title>564-&gt;388</title>
<path fill="none" stroke="#000000" d="M171,-215.8314C171,-208.131 171,-198.9743 171,-190.4166"/>
<polygon fill="#000000" stroke="#000000" points="174.5001,-190.4132 171,-180.4133 167.5001,-190.4133 174.5001,-190.4132"/>
</g>
<!-- 739 -->
<g id="node12" class="node">
<title>739</title>
<ellipse fill="#000000" stroke="#000000" cx="243" cy="-162" rx="27" ry="18"/>
<text text-anchor="middle" x="243" y="-157.8" font-family="Times,serif" font-size="14.00" fill="#ffffff">739</text>
</g>
<!-- 564&#45;&gt;739 -->
<g id="edge11" class="edge">
<title>564-&gt;739</title>
<path fill="none" stroke="#000000" d="M186.2693,-218.7307C196.197,-208.803 209.3153,-195.6847 220.4363,-184.5637"/>
<polygon fill="#000000" stroke="#000000" points="223.1564,-186.7933 227.7527,-177.2473 218.2067,-181.8436 223.1564,-186.7933"/>
</g>
<!-- 533 -->
<g id="node11" class="node">
<title>533</title>
<ellipse fill="#ff0000" stroke="#000000" cx="171" cy="-90" rx="27" ry="18"/>
<text text-anchor="middle" x="171" y="-85.8" font-family="Times,serif" font-size="14.00" fill="#ffffff">533</text>
</g>
<!-- 388&#45;&gt;533 -->
<g id="edge10" class="edge">
<title>388-&gt;533</title>
<path fill="none" stroke="#000000" d="M171,-143.8314C171,-136.131 171,-126.9743 171,-118.4166"/>
<polygon fill="#000000" stroke="#000000" points="174.5001,-118.4132 171,-108.4133 167.5001,-118.4133 174.5001,-118.4132"/>
</g>
<!-- 854 -->
<g id="node14" class="node">
<title>854</title>
<ellipse fill="#000000" stroke="#000000" cx="243" cy="-234" rx="27" ry="18"/>
<text text-anchor="middle" x="243" y="-229.8" font-family="Times,serif" font-size="14.00" fill="#ffffff">854</text>
</g>
<!-- 905&#45;&gt;854 -->
<g id="edge13" class="edge">
<title>905-&gt;854</title>
<path fill="none" stroke="#000000" d="M271.2315,-288.937C266.8721,-280.4537 261.5047,-270.0092 256.6247,-260.513"/>
<polygon fill="#000000" stroke="#000000" points="259.6463,-258.7352 251.9626,-251.4407 253.4203,-261.9348 259.6463,-258.7352"/>
</g>
<!-- 1116 -->
<g id="node15" class="node">
<title>1116</title>
<ellipse fill="#000000" stroke="#000000" cx="318" cy="-234" rx="30.2015" ry="18"/>
<text text-anchor="middle" x="318" y="-229.8" font-family="Times,serif" font-size="14.00" fill="#ffffff">1116</text>
</g>
<!-- 905&#45;&gt;1116 -->
<g id="edge14" class="edge">
<title>905-&gt;1116</title>
<path fill="none" stroke="#000000" d="M289.0055,-288.937C293.4828,-280.4537 298.9952,-270.0092 304.007,-260.513"/>
<polygon fill="#000000" stroke="#000000" points="307.2229,-261.9182 308.7952,-251.4407 301.0322,-258.6509 307.2229,-261.9182"/>
</g>
<!-- 1227 -->
<g id="node16" class="node">
<title>1227</title>
<ellipse fill="#ff0000" stroke="#000000" cx="318" cy="-162" rx="30.2015" ry="18"/>
<text text-anchor="middle" x="318" y="-157.8" font-family="Times,serif" font-size="14.00" fill="#ffffff">1227</text>
</g>
<!-- 1116&#45;&gt;1227 -->
<g id="edge15" class="edge">
<title>1116-&gt;1227</title>
<path fill="none" stroke="#000000" d="M318,-215.8314C318,-208.131 318,-198.9743 318,-190.4166"/>
<polygon fill="#000000" stroke="#000000" points="321.5001,-190.4132 318,-180.4133 314.5001,-190.4133 321.5001,-190.4132"/>
</g>
<!-- 2494 -->
<g id="node18" class="node">
<title>2494</title>
<ellipse fill="#000000" stroke="#000000" cx="594" cy="-306" rx="30.2015" ry="18"/>
<text text-anchor="middle" x="594" y="-301.8" font-family="Times,serif" font-size="14.00" fill="#ffffff">2494</text>
</g>
<!-- 2927&#45;&gt;2494 -->
<g id="edge17" class="edge">
<title>2927-&gt;2494</title>
<path fill="none" stroke="#000000" d="M656.2461,-362.7307C645.2486,-352.7075 630.6825,-339.4321 618.406,-328.2434"/>
<polygon fill="#000000" stroke="#000000" points="620.4783,-325.3966 610.7297,-321.2473 615.763,-330.5702 620.4783,-325.3966"/>
</g>
<!-- 3427 -->
<g id="node29" class="node">
<title>3427</title>
<ellipse fill="#ff0000" stroke="#000000" cx="752" cy="-306" rx="30.2015" ry="18"/>
<text text-anchor="middle" x="752" y="-301.8" font-family="Times,serif" font-size="14.00" fill="#ffffff">3427</text>
</g>
<!-- 2927&#45;&gt;3427 -->
<g id="edge28" class="edge">
<title>2927-&gt;3427</title>
<path fill="none" stroke="#000000" d="M689.7539,-362.7307C700.7514,-352.7075 715.3175,-339.4321 727.594,-328.2434"/>
<polygon fill="#000000" stroke="#000000" points="730.237,-330.5702 735.2703,-321.2473 725.5217,-325.3966 730.237,-330.5702"/>
</g>
<!-- 1775 -->
<g id="node19" class="node">
<title>1775</title>
<ellipse fill="#ff0000" stroke="#000000" cx="476" cy="-234" rx="30.2015" ry="18"/>
<text text-anchor="middle" x="476" y="-229.8" font-family="Times,serif" font-size="14.00" fill="#ffffff">1775</text>
</g>
<!-- 2494&#45;&gt;1775 -->
<g id="edge18" class="edge">
<title>2494-&gt;1775</title>
<path fill="none" stroke="#000000" d="M572.6311,-292.9613C554.0023,-281.5946 526.7832,-264.9863 505.9769,-252.291"/>
<polygon fill="#000000" stroke="#000000" points="507.5694,-249.1626 497.2099,-246.9417 503.9233,-255.1381 507.5694,-249.1626"/>
</g>
<!-- 2721 -->
<g id="node24" class="node">
<title>2721</title>
<ellipse fill="#ff0000" stroke="#000000" cx="594" cy="-234" rx="30.2015" ry="18"/>
<text text-anchor="middle" x="594" y="-229.8" font-family="Times,serif" font-size="14.00" fill="#ffffff">2721</text>
</g>
<!-- 2494&#45;&gt;2721 -->
<g id="edge23" class="edge">
<title>2494-&gt;2721</title>
<path fill="none" stroke="#000000" d="M594,-287.8314C594,-280.131 594,-270.9743 594,-262.4166"/>
<polygon fill="#000000" stroke="#000000" points="597.5001,-262.4132 594,-252.4133 590.5001,-262.4133 597.5001,-262.4132"/>
</g>
<!-- 1761 -->
<g id="node20" class="node">
<title>1761</title>
<ellipse fill="#000000" stroke="#000000" cx="397" cy="-162" rx="30.2015" ry="18"/>
<text text-anchor="middle" x="397" y="-157.8" font-family="Times,serif" font-size="14.00" fill="#ffffff">1761</text>
</g>
<!-- 1775&#45;&gt;1761 -->
<g id="edge19" class="edge">
<title>1775-&gt;1761</title>
<path fill="none" stroke="#000000" d="M459.2461,-218.7307C448.2486,-208.7075 433.6825,-195.4321 421.406,-184.2434"/>
<polygon fill="#000000" stroke="#000000" points="423.4783,-181.3966 413.7297,-177.2473 418.763,-186.5702 423.4783,-181.3966"/>
</g>
<!-- 2071 -->
<g id="node21" class="node">
<title>2071</title>
<ellipse fill="#000000" stroke="#000000" cx="476" cy="-162" rx="30.2015" ry="18"/>
<text text-anchor="middle" x="476" y="-157.8" font-family="Times,serif" font-size="14.00" fill="#ffffff">2071</text>
</g>
<!-- 1775&#45;&gt;2071 -->
<g id="edge20" class="edge">
<title>1775-&gt;2071</title>
<path fill="none" stroke="#000000" d="M476,-215.8314C476,-208.131 476,-198.9743 476,-190.4166"/>
<polygon fill="#000000" stroke="#000000" points="479.5001,-190.4132 476,-180.4133 472.5001,-190.4133 479.5001,-190.4132"/>
</g>
<!-- 1965 -->
<g id="node22" class="node">
<title>1965</title>
<ellipse fill="#ff0000" stroke="#000000" cx="397" cy="-90" rx="30.2015" ry="18"/>
<text text-anchor="middle" x="397" y="-85.8" font-family="Times,serif" font-size="14.00" fill="#ffffff">1965</text>
</g>
<!-- 2071&#45;&gt;1965 -->
<g id="edge21" class="edge">
<title>2071-&gt;1965</title>
<path fill="none" stroke="#000000" d="M459.2461,-146.7307C448.2486,-136.7075 433.6825,-123.4321 421.406,-112.2434"/>
<polygon fill="#000000" stroke="#000000" points="423.4783,-109.3966 413.7297,-105.2473 418.763,-114.5702 423.4783,-109.3966"/>
</g>
<!-- 2198 -->
<g id="node23" class="node">
<title>2198</title>
<ellipse fill="#ff0000" stroke="#000000" cx="476" cy="-90" rx="30.2015" ry="18"/>
<text text-anchor="middle" x="476" y="-85.8" font-family="Times,serif" font-size="14.00" fill="#ffffff">2198</text>
</g>
<!-- 2071&#45;&gt;2198 -->
<g id="edge22" class="edge">
<title>2071-&gt;2198</title>
<path fill="none" stroke="#000000" d="M476,-143.8314C476,-136.131 476,-126.9743 476,-118.4166"/>
<polygon fill="#000000" stroke="#000000" points="479.5001,-118.4132 476,-108.4133 472.5001,-118.4133 479.5001,-118.4132"/>
</g>
<!-- 2590 -->
<g id="node25" class="node">
<title>2590</title>
<ellipse fill="#000000" stroke="#000000" cx="555" cy="-162" rx="30.2015" ry="18"/>
<text text-anchor="middle" x="555" y="-157.8" font-family="Times,serif" font-size="14.00" fill="#ffffff">2590</text>
</g>
<!-- 2721&#45;&gt;2590 -->
<g id="edge24" class="edge">
<title>2721-&gt;2590</title>
<path fill="none" stroke="#000000" d="M584.5592,-216.5708C579.9604,-208.0807 574.3336,-197.6929 569.2282,-188.2674"/>
<polygon fill="#000000" stroke="#000000" points="572.1943,-186.3946 564.3539,-179.2687 566.0392,-189.7286 572.1943,-186.3946"/>
</g>
<!-- 2925 -->
<g id="node28" class="node">
<title>2925</title>
<ellipse fill="#000000" stroke="#000000" cx="634" cy="-162" rx="30.2015" ry="18"/>
<text text-anchor="middle" x="634" y="-157.8" font-family="Times,serif" font-size="14.00" fill="#ffffff">2925</text>
</g>
<!-- 2721&#45;&gt;2925 -->
<g id="edge27" class="edge">
<title>2721-&gt;2925</title>
<path fill="none" stroke="#000000" d="M603.6829,-216.5708C608.3996,-208.0807 614.1706,-197.6929 619.407,-188.2674"/>
<polygon fill="#000000" stroke="#000000" points="622.6094,-189.71 624.4063,-179.2687 616.4903,-186.3105 622.6094,-189.71"/>
</g>
<!-- 2502 -->
<g id="node26" class="node">
<title>2502</title>
<ellipse fill="#ff0000" stroke="#000000" cx="555" cy="-90" rx="30.2015" ry="18"/>
<text text-anchor="middle" x="555" y="-85.8" font-family="Times,serif" font-size="14.00" fill="#ffffff">2502</text>
</g>
<!-- 2590&#45;&gt;2502 -->
<g id="edge25" class="edge">
<title>2590-&gt;2502</title>
<path fill="none" stroke="#000000" d="M555,-143.8314C555,-136.131 555,-126.9743 555,-118.4166"/>
<polygon fill="#000000" stroke="#000000" points="558.5001,-118.4132 555,-108.4133 551.5001,-118.4133 558.5001,-118.4132"/>
</g>
<!-- 2607 -->
<g id="node27" class="node">
<title>2607</title>
<ellipse fill="#ff0000" stroke="#000000" cx="634" cy="-90" rx="30.2015" ry="18"/>
<text text-anchor="middle" x="634" y="-85.8" font-family="Times,serif" font-size="14.00" fill="#ffffff">2607</text>
</g>
<!-- 2590&#45;&gt;2607 -->
<g id="edge26" class="edge">
<title>2590-&gt;2607</title>
<path fill="none" stroke="#000000" d="M571.7539,-146.7307C582.7514,-136.7075 597.3175,-123.4321 609.594,-112.2434"/>
<polygon fill="#000000" stroke="#000000" points="612.237,-114.5702 617.2703,-105.2473 607.5217,-109.3966 612.237,-114.5702"/>
</g>
<!-- 3166 -->
<g id="node30" class="node">
<title>3166</title>
<ellipse fill="#000000" stroke="#000000" cx="752" cy="-234" rx="30.2015" ry="18"/>
<text text-anchor="middle" x="752" y="-229.8" font-family="Times,serif" font-size="14.00" fill="#ffffff">3166</text>
</g>
<!-- 3427&#45;&gt;3166 -->
<g id="edge29" class="edge">
<title>3427-&gt;3166</title>
<path fill="none" stroke="#000000" d="M752,-287.8314C752,-280.131 752,-270.9743 752,-262.4166"/>
<polygon fill="#000000" stroke="#000000" points="755.5001,-262.4132 752,-252.4133 748.5001,-262.4133 755.5001,-262.4132"/>
</g>
<!-- 4050 -->
<g id="node36" class="node">
<title>4050</title>
<ellipse fill="#000000" stroke="#000000" cx="871" cy="-234" rx="30.2015" ry="18"/>
<text text-anchor="middle" x="871" y="-229.8" font-family="Times,serif" font-size="14.00" fill="#ffffff">4050</text>
</g>
<!-- 3427&#45;&gt;4050 -->
<g id="edge35" class="edge">
<title>3427-&gt;4050</title>
<path fill="none" stroke="#000000" d="M773.2748,-293.1278C792.1106,-281.7314 819.8093,-264.9725 840.9127,-252.2041"/>
<polygon fill="#000000" stroke="#000000" points="842.7641,-255.1747 849.5081,-247.0035 839.1405,-249.1856 842.7641,-255.1747"/>
</g>
<!-- 3100 -->
<g id="node31" class="node">
<title>3100</title>
<ellipse fill="#000000" stroke="#000000" cx="713" cy="-162" rx="30.2015" ry="18"/>
<text text-anchor="middle" x="713" y="-157.8" font-family="Times,serif" font-size="14.00" fill="#ffffff">3100</text>
</g>
<!-- 3166&#45;&gt;3100 -->
<g id="edge30" class="edge">
<title>3166-&gt;3100</title>
<path fill="none" stroke="#000000" d="M742.5592,-216.5708C737.9604,-208.0807 732.3336,-197.6929 727.2282,-188.2674"/>
<polygon fill="#000000" stroke="#000000" points="730.1943,-186.3946 722.3539,-179.2687 724.0392,-189.7286 730.1943,-186.3946"/>
</g>
<!-- 3401 -->
<g id="node33" class="node">
<title>3401</title>
<ellipse fill="#000000" stroke="#000000" cx="792" cy="-162" rx="30.2015" ry="18"/>
<text text-anchor="middle" x="792" y="-157.8" font-family="Times,serif" font-size="14.00" fill="#ffffff">3401</text>
</g>
<!-- 3166&#45;&gt;3401 -->
<g id="edge32" class="edge">
<title>3166-&gt;3401</title>
<path fill="none" stroke="#000000" d="M761.6829,-216.5708C766.3996,-208.0807 772.1706,-197.6929 777.407,-188.2674"/>
<polygon fill="#000000" stroke="#000000" points="780.6094,-189.71 782.4063,-179.2687 774.4903,-186.3105 780.6094,-189.71"/>
</g>
<!-- 3087 -->
<g id="node32" class="node">
<title>3087</title>
<ellipse fill="#ff0000" stroke="#000000" cx="713" cy="-90" rx="30.2015" ry="18"/>
<text text-anchor="middle" x="713" y="-85.8" font-family="Times,serif" font-size="14.00" fill="#ffffff">3087</text>
</g>
<!-- 3100&#45;&gt;3087 -->
<g id="edge31" class="edge">
<title>3100-&gt;3087</title>
<path fill="none" stroke="#000000" d="M713,-143.8314C713,-136.131 713,-126.9743 713,-118.4166"/>
<polygon fill="#000000" stroke="#000000" points="716.5001,-118.4132 713,-108.4133 709.5001,-118.4133 716.5001,-118.4132"/>
</g>
<!-- 3376 -->
<g id="node34" class="node">
<title>3376</title>
<ellipse fill="#ff0000" stroke="#000000" cx="792" cy="-90" rx="30.2015" ry="18"/>
<text text-anchor="middle" x="792" y="-85.8" font-family="Times,serif" font-size="14.00" fill="#ffffff">3376</text>
</g>
<!-- 3401&#45;&gt;3376 -->
<g id="edge33" class="edge">
<title>3401-&gt;3376</title>
<path fill="none" stroke="#000000" d="M792,-143.8314C792,-136.131 792,-126.9743 792,-118.4166"/>
<polygon fill="#000000" stroke="#000000" points="795.5001,-118.4132 792,-108.4133 788.5001,-118.4133 795.5001,-118.4132"/>
</g>
<!-- 3402 -->
<g id="node35" class="node">
<title>3402</title>
<ellipse fill="#ff0000" stroke="#000000" cx="871" cy="-90" rx="30.2015" ry="18"/>
<text text-anchor="middle" x="871" y="-85.8" font-family="Times,serif" font-size="14.00" fill="#ffffff">3402</text>
</g>
<!-- 3401&#45;&gt;3402 -->
<g id="edge34" class="edge">
<title>3401-&gt;3402</title>
<path fill="none" stroke="#000000" d="M808.7539,-146.7307C819.7514,-136.7075 834.3175,-123.4321 846.594,-112.2434"/>
<polygon fill="#000000" stroke="#000000" points="849.237,-114.5702 854.2703,-105.2473 844.5217,-109.3966 849.237,-114.5702"/>
</g>
<!-- 3751 -->
<g id="node37" class="node">
<title>3751</title>
<ellipse fill="#000000" stroke="#000000" cx="871" cy="-162" rx="30.2015" ry="18"/>
<text text-anchor="middle" x="871" y="-157.8" font-family="Times,serif" font-size="14.00" fill="#ffffff">3751</text>
</g>
<!-- 4050&#45;&gt;3751 -->
<g id="edge36" class="edge">
<title>4050-&gt;3751</title>
<path fill="none" stroke="#000000" d="M871,-215.8314C871,-208.131 871,-198.9743 871,-190.4166"/>
<polygon fill="#000000" stroke="#000000" points="874.5001,-190.4132 871,-180.4133 867.5001,-190.4133 874.5001,-190.4132"/>
</g>
<!-- 4288 -->
<g id="node39" class="node">
<title>4288</title>
<ellipse fill="#000000" stroke="#000000" cx="950" cy="-162" rx="30.2015" ry="18"/>
<text text-anchor="middle" x="950" y="-157.8" font-family="Times,serif" font-size="14.00" fill="#ffffff">4288</text>
</g>
<!-- 4050&#45;&gt;4288 -->
<g id="edge38" class="edge">
<title>4050-&gt;4288</title>
<path fill="none" stroke="#000000" d="M887.7539,-218.7307C898.7514,-208.7075 913.3175,-195.4321 925.594,-184.2434"/>
<polygon fill="#000000" stroke="#000000" points="928.237,-186.5702 933.2703,-177.2473 923.5217,-181.3966 928.237,-186.5702"/>
</g>
<!-- 3863 -->
<g id="node38" class="node">
<title>3863</title>
<ellipse fill="#ff0000" stroke="#000000" cx="950" cy="-90" rx="30.2015" ry="18"/>
<text text-anchor="middle" x="950" y="-85.8" font-family="Times,serif" font-size="14.00" fill="#ffffff">3863</text>
</g>
<!-- 3751&#45;&gt;3863 -->
<g id="edge37" class="edge">
<title>3751-&gt;3863</title>
<path fill="none" stroke="#000000" d="M887.7539,-146.7307C898.7514,-136.7075 913.3175,-123.4321 925.594,-112.2434"/>
<polygon fill="#000000" stroke="#000000" points="928.237,-114.5702 933.2703,-105.2473 923.5217,-109.3966 928.237,-114.5702"/>
</g>
<!-- 5980 -->
<g id="node41" class="node">
<title>5980</title>
<ellipse fill="#000000" stroke="#000000" cx="1148" cy="-378" rx="30.2015" ry="18"/>
<text text-anchor="middle" x="1148" y="-373.8" font-family="Times,serif" font-size="14.00" fill="#ffffff">5980</text>
</g>
<!-- 7106&#45;&gt;5980 -->
<g id="edge40" class="edge">
<title>7106-&gt;5980</title>
<path fill="none" stroke="#000000" d="M1148,-431.8314C1148,-424.131 1148,-414.9743 1148,-406.4166"/>
<polygon fill="#000000" stroke="#000000" points="1151.5001,-406.4132 1148,-396.4133 1144.5001,-406.4133 1151.5001,-406.4132"/>
</g>
<!-- 8784 -->
<g id="node56" class="node">
<title>8784</title>
<ellipse fill="#000000" stroke="#000000" cx="1622" cy="-378" rx="30.2015" ry="18"/>
<text text-anchor="middle" x="1622" y="-373.8" font-family="Times,serif" font-size="14.00" fill="#ffffff">8784</text>
</g>
<!-- 7106&#45;&gt;8784 -->
<g id="edge55" class="edge">
<title>7106-&gt;8784</title>
<path fill="none" stroke="#000000" d="M1177.6508,-445.4961C1259.6159,-433.0457 1489.3252,-398.1531 1582.2431,-384.039"/>
<polygon fill="#000000" stroke="#000000" points="1582.9994,-387.4644 1592.3604,-382.5022 1581.9481,-380.5438 1582.9994,-387.4644"/>
</g>
<!-- 5259 -->
<g id="node42" class="node">
<title>5259</title>
<ellipse fill="#000000" stroke="#000000" cx="1108" cy="-306" rx="30.2015" ry="18"/>
<text text-anchor="middle" x="1108" y="-301.8" font-family="Times,serif" font-size="14.00" fill="#ffffff">5259</text>
</g>
<!-- 5980&#45;&gt;5259 -->
<g id="edge41" class="edge">
<title>5980-&gt;5259</title>
<path fill="none" stroke="#000000" d="M1138.3171,-360.5708C1133.6004,-352.0807 1127.8294,-341.6929 1122.593,-332.2674"/>
<polygon fill="#000000" stroke="#000000" points="1125.5097,-330.3105 1117.5937,-323.2687 1119.3906,-333.71 1125.5097,-330.3105"/>
</g>
<!-- 6301 -->
<g id="node47" class="node">
<title>6301</title>
<ellipse fill="#000000" stroke="#000000" cx="1227" cy="-306" rx="30.2015" ry="18"/>
<text text-anchor="middle" x="1227" y="-301.8" font-family="Times,serif" font-size="14.00" fill="#ffffff">6301</text>
</g>
<!-- 5980&#45;&gt;6301 -->
<g id="edge46" class="edge">
<title>5980-&gt;6301</title>
<path fill="none" stroke="#000000" d="M1164.7539,-362.7307C1175.7514,-352.7075 1190.3175,-339.4321 1202.594,-328.2434"/>
<polygon fill="#000000" stroke="#000000" points="1205.237,-330.5702 1210.2703,-321.2473 1200.5217,-325.3966 1205.237,-330.5702"/>
</g>
<!-- 5203 -->
<g id="node43" class="node">
<title>5203</title>
<ellipse fill="#000000" stroke="#000000" cx="1029" cy="-234" rx="30.2015" ry="18"/>
<text text-anchor="middle" x="1029" y="-229.8" font-family="Times,serif" font-size="14.00" fill="#ffffff">5203</text>
</g>
<!-- 5259&#45;&gt;5203 -->
<g id="edge42" class="edge">
<title>5259-&gt;5203</title>
<path fill="none" stroke="#000000" d="M1091.2461,-290.7307C1080.2486,-280.7075 1065.6825,-267.4321 1053.406,-256.2434"/>
<polygon fill="#000000" stroke="#000000" points="1055.4783,-253.3966 1045.7297,-249.2473 1050.763,-258.5702 1055.4783,-253.3966"/>
</g>
<!-- 5822 -->
<g id="node44" class="node">
<title>5822</title>
<ellipse fill="#ff0000" stroke="#000000" cx="1108" cy="-234" rx="30.2015" ry="18"/>
<text text-anchor="middle" x="1108" y="-229.8" font-family="Times,serif" font-size="14.00" fill="#ffffff">5822</text>
</g>
<!-- 5259&#45;&gt;5822 -->
<g id="edge43" class="edge">
<title>5259-&gt;5822</title>
<path fill="none" stroke="#000000" d="M1108,-287.8314C1108,-280.131 1108,-270.9743 1108,-262.4166"/>
<polygon fill="#000000" stroke="#000000" points="1111.5001,-262.4132 1108,-252.4133 1104.5001,-262.4133 1111.5001,-262.4132"/>
</g>
<!-- 5366 -->
<g id="node45" class="node">
<title>5366</title>
<ellipse fill="#000000" stroke="#000000" cx="1029" cy="-162" rx="30.2015" ry="18"/>
<text text-anchor="middle" x="1029" y="-157.8" font-family="Times,serif" font-size="14.00" fill="#ffffff">5366</text>
</g>
<!-- 5822&#45;&gt;5366 -->
<g id="edge44" class="edge">
<title>5822-&gt;5366</title>
<path fill="none" stroke="#000000" d="M1091.2461,-218.7307C1080.2486,-208.7075 1065.6825,-195.4321 1053.406,-184.2434"/>
<polygon fill="#000000" stroke="#000000" points="1055.4783,-181.3966 1045.7297,-177.2473 1050.763,-186.5702 1055.4783,-181.3966"/>
</g>
<!-- 5926 -->
<g id="node46" class="node">
<title>5926</title>
<ellipse fill="#000000" stroke="#000000" cx="1108" cy="-162" rx="30.2015" ry="18"/>
<text text-anchor="middle" x="1108" y="-157.8" font-family="Times,serif" font-size="14.00" fill="#ffffff">5926</text>
</g>
<!-- 5822&#45;&gt;5926 -->
<g id="edge45" class="edge">
<title>5822-&gt;5926</title>
<path fill="none" stroke="#000000" d="M1108,-215.8314C1108,-208.131 1108,-198.9743 1108,-190.4166"/>
<polygon fill="#000000" stroke="#000000" points="1111.5001,-190.4132 1108,-180.4133 1104.5001,-190.4133 1111.5001,-190.4132"/>
</g>
<!-- 6133 -->
<g id="node48" class="node">
<title>6133</title>
<ellipse fill="#ff0000" stroke="#000000" cx="1227" cy="-234" rx="30.2015" ry="18"/>
<text text-anchor="middle" x="1227" y="-229.8" font-family="Times,serif" font-size="14.00" fill="#ffffff">6133</text>
</g>
<!-- 6301&#45;&gt;6133 -->
<g id="edge47" class="edge">
<title>6301-&gt;6133</title>
<path fill="none" stroke="#000000" d="M1227,-287.8314C1227,-280.131 1227,-270.9743 1227,-262.4166"/>
<polygon fill="#000000" stroke="#000000" points="1230.5001,-262.4132 1227,-252.4133 1223.5001,-262.4133 1230.5001,-262.4132"/>
</g>
<!-- 6388 -->
<g id="node52" class="node">
<title>6388</title>
<ellipse fill="#ff0000" stroke="#000000" cx="1345" cy="-234" rx="30.2015" ry="18"/>
<text text-anchor="middle" x="1345" y="-229.8" font-family="Times,serif" font-size="14.00" fill="#ffffff">6388</text>
</g>
<!-- 6301&#45;&gt;6388 -->
<g id="edge51" class="edge">
<title>6301-&gt;6388</title>
<path fill="none" stroke="#000000" d="M1248.3689,-292.9613C1266.9977,-281.5946 1294.2168,-264.9863 1315.0231,-252.291"/>
<polygon fill="#000000" stroke="#000000" points="1317.0767,-255.1381 1323.7901,-246.9417 1313.4306,-249.1626 1317.0767,-255.1381"/>
</g>
<!-- 6110 -->
<g id="node49" class="node">
<title>6110</title>
<ellipse fill="#000000" stroke="#000000" cx="1187" cy="-162" rx="30.2015" ry="18"/>
<text text-anchor="middle" x="1187" y="-157.8" font-family="Times,serif" font-size="14.00" fill="#ffffff">6110</text>
</g>
<!-- 6133&#45;&gt;6110 -->
<g id="edge48" class="edge">
<title>6133-&gt;6110</title>
<path fill="none" stroke="#000000" d="M1217.3171,-216.5708C1212.6004,-208.0807 1206.8294,-197.6929 1201.593,-188.2674"/>
<polygon fill="#000000" stroke="#000000" points="1204.5097,-186.3105 1196.5937,-179.2687 1198.3906,-189.71 1204.5097,-186.3105"/>
</g>
<!-- 6226 -->
<g id="node51" class="node">
<title>6226</title>
<ellipse fill="#000000" stroke="#000000" cx="1266" cy="-162" rx="30.2015" ry="18"/>
<text text-anchor="middle" x="1266" y="-157.8" font-family="Times,serif" font-size="14.00" fill="#ffffff">6226</text>
</g>
<!-- 6133&#45;&gt;6226 -->
<g id="edge50" class="edge">
<title>6133-&gt;6226</title>
<path fill="none" stroke="#000000" d="M1236.4408,-216.5708C1241.0396,-208.0807 1246.6664,-197.6929 1251.7718,-188.2674"/>
<polygon fill="#000000" stroke="#000000" points="1254.9608,-189.7286 1256.6461,-179.2687 1248.8057,-186.3946 1254.9608,-189.7286"/>
</g>
<!-- 6049 -->
<g id="node50" class="node">
<title>6049</title>
<ellipse fill="#ff0000" stroke="#000000" cx="1187" cy="-90" rx="30.2015" ry="18"/>
<text text-anchor="middle" x="1187" y="-85.8" font-family="Times,serif" font-size="14.00" fill="#ffffff">6049</text>
</g>
<!-- 6110&#45;&gt;6049 -->
<g id="edge49" class="edge">
<title>6110-&gt;6049</title>
<path fill="none" stroke="#000000" d="M1187,-143.8314C1187,-136.131 1187,-126.9743 1187,-118.4166"/>
<polygon fill="#000000" stroke="#000000" points="1190.5001,-118.4132 1187,-108.4133 1183.5001,-118.4133 1190.5001,-118.4132"/>
</g>
<!-- 6322 -->
<g id="node53" class="node">
<title>6322</title>
<ellipse fill="#000000" stroke="#000000" cx="1345" cy="-162" rx="30.2015" ry="18"/>
<text text-anchor="middle" x="1345" y="-157.8" font-family="Times,serif" font-size="14.00" fill="#ffffff">6322</text>
</g>
<!-- 6388&#45;&gt;6322 -->
<g id="edge52" class="edge">
<title>6388-&gt;6322</title>
<path fill="none" stroke="#000000" d="M1345,-215.8314C1345,-208.131 1345,-198.9743 1345,-190.4166"/>
<polygon fill="#000000" stroke="#000000" points="1348.5001,-190.4132 1345,-180.4133 1341.5001,-190.4133 1348.5001,-190.4132"/>
</g>
<!-- 6719 -->
<g id="node54" class="node">
<title>6719</title>
<ellipse fill="#000000" stroke="#000000" cx="1424" cy="-162" rx="30.2015" ry="18"/>
<text text-anchor="middle" x="1424" y="-157.8" font-family="Times,serif" font-size="14.00" fill="#ffffff">6719</text>
</g>
<!-- 6388&#45;&gt;6719 -->
<g id="edge53" class="edge">
<title>6388-&gt;6719</title>
<path fill="none" stroke="#000000" d="M1361.7539,-218.7307C1372.7514,-208.7075 1387.3175,-195.4321 1399.594,-184.2434"/>
<polygon fill="#000000" stroke="#000000" points="1402.237,-186.5702 1407.2703,-177.2473 1397.5217,-181.3966 1402.237,-186.5702"/>
</g>
<!-- 6793 -->
<g id="node55" class="node">
<title>6793</title>
<ellipse fill="#ff0000" stroke="#000000" cx="1424" cy="-90" rx="30.2015" ry="18"/>
<text text-anchor="middle" x="1424" y="-85.8" font-family="Times,serif" font-size="14.00" fill="#ffffff">6793</text>
</g>
<!-- 6719&#45;&gt;6793 -->
<g id="edge54" class="edge">
<title>6719-&gt;6793</title>
<path fill="none" stroke="#000000" d="M1424,-143.8314C1424,-136.131 1424,-126.9743 1424,-118.4166"/>
<polygon fill="#000000" stroke="#000000" points="1427.5001,-118.4132 1424,-108.4133 1420.5001,-118.4133 1427.5001,-118.4132"/>
</g>
<!-- 7779 -->
<g id="node57" class="node">
<title>7779</title>
<ellipse fill="#ff0000" stroke="#000000" cx="1622" cy="-306" rx="30.2015" ry="18"/>
<text text-anchor="middle" x="1622" y="-301.8" font-family="Times,serif" font-size="14.00" fill="#ffffff">7779</text>
</g>
<!-- 8784&#45;&gt;7779 -->
<g id="edge56" class="edge">
<title>8784-&gt;7779</title>
<path fill="none" stroke="#000000" d="M1622,-359.8314C1622,-352.131 1622,-342.9743 1622,-334.4166"/>
<polygon fill="#000000" stroke="#000000" points="1625.5001,-334.4132 1622,-324.4133 1618.5001,-334.4133 1625.5001,-334.4132"/>
</g>
<!-- 9348 -->
<g id="node69" class="node">
<title>9348</title>
<ellipse fill="#000000" stroke="#000000" cx="1819" cy="-306" rx="30.2015" ry="18"/>
<text text-anchor="middle" x="1819" y="-301.8" font-family="Times,serif" font-size="14.00" fill="#ffffff">9348</text>
</g>
<!-- 8784&#45;&gt;9348 -->
<g id="edge68" class="edge">
<title>8784-&gt;9348</title>
<path fill="none" stroke="#000000" d="M1648.1601,-368.439C1682.8443,-355.7625 1744.1986,-333.3386 1783.1693,-319.0955"/>
<polygon fill="#000000" stroke="#000000" points="1784.8546,-322.206 1793.0455,-315.4859 1782.4517,-315.6314 1784.8546,-322.206"/>
</g>
<!-- 7563 -->
<g id="node58" class="node">
<title>7563</title>
<ellipse fill="#000000" stroke="#000000" cx="1582" cy="-234" rx="30.2015" ry="18"/>
<text text-anchor="middle" x="1582" y="-229.8" font-family="Times,serif" font-size="14.00" fill="#ffffff">7563</text>
</g>
<!-- 7779&#45;&gt;7563 -->
<g id="edge57" class="edge">
<title>7779-&gt;7563</title>
<path fill="none" stroke="#000000" d="M1612.3171,-288.5708C1607.6004,-280.0807 1601.8294,-269.6929 1596.593,-260.2674"/>
<polygon fill="#000000" stroke="#000000" points="1599.5097,-258.3105 1591.5937,-251.2687 1593.3906,-261.71 1599.5097,-258.3105"/>
</g>
<!-- 8087 -->
<g id="node64" class="node">
<title>8087</title>
<ellipse fill="#000000" stroke="#000000" cx="1661" cy="-234" rx="30.2015" ry="18"/>
<text text-anchor="middle" x="1661" y="-229.8" font-family="Times,serif" font-size="14.00" fill="#ffffff">8087</text>
</g>
<!-- 7779&#45;&gt;8087 -->
<g id="edge63" class="edge">
<title>7779-&gt;8087</title>
<path fill="none" stroke="#000000" d="M1631.4408,-288.5708C1636.0396,-280.0807 1641.6664,-269.6929 1646.7718,-260.2674"/>
<polygon fill="#000000" stroke="#000000" points="1649.9608,-261.7286 1651.6461,-251.2687 1643.8057,-258.3946 1649.9608,-261.7286"/>
</g>
<!-- 7482 -->
<g id="node59" class="node">
<title>7482</title>
<ellipse fill="#ff0000" stroke="#000000" cx="1503" cy="-162" rx="30.2015" ry="18"/>
<text text-anchor="middle" x="1503" y="-157.8" font-family="Times,serif" font-size="14.00" fill="#ffffff">7482</text>
</g>
<!-- 7563&#45;&gt;7482 -->
<g id="edge58" class="edge">
<title>7563-&gt;7482</title>
<path fill="none" stroke="#000000" d="M1565.2461,-218.7307C1554.2486,-208.7075 1539.6825,-195.4321 1527.406,-184.2434"/>
<polygon fill="#000000" stroke="#000000" points="1529.4783,-181.3966 1519.7297,-177.2473 1524.763,-186.5702 1529.4783,-181.3966"/>
</g>
<!-- 7731 -->
<g id="node63" class="node">
<title>7731</title>
<ellipse fill="#000000" stroke="#000000" cx="1582" cy="-162" rx="30.2015" ry="18"/>
<text text-anchor="middle" x="1582" y="-157.8" font-family="Times,serif" font-size="14.00" fill="#ffffff">7731</text>
</g>
<!-- 7563&#45;&gt;7731 -->
<g id="edge62" class="edge">
<title>7563-&gt;7731</title>
<path fill="none" stroke="#000000" d="M1582,-215.8314C1582,-208.131 1582,-198.9743 1582,-190.4166"/>
<polygon fill="#000000" stroke="#000000" points="1585.5001,-190.4132 1582,-180.4133 1578.5001,-190.4133 1585.5001,-190.4132"/>
</g>
<!-- 7201 -->
<g id="node60" class="node">
<title>7201</title>
<ellipse fill="#000000" stroke="#000000" cx="1503" cy="-90" rx="30.2015" ry="18"/>
<text text-anchor="middle" x="1503" y="-85.8" font-family="Times,serif" font-size="14.00" fill="#ffffff">7201</text>
</g>
<!-- 7482&#45;&gt;7201 -->
<g id="edge59" class="edge">
<title>7482-&gt;7201</title>
<path fill="none" stroke="#000000" d="M1503,-143.8314C1503,-136.131 1503,-126.9743 1503,-118.4166"/>
<polygon fill="#000000" stroke="#000000" points="1506.5001,-118.4132 1503,-108.4133 1499.5001,-118.4133 1506.5001,-118.4132"/>
</g>
<!-- 7486 -->
<g id="node62" class="node">
<title>7486</title>
<ellipse fill="#000000" stroke="#000000" cx="1582" cy="-90" rx="30.2015" ry="18"/>
<text text-anchor="middle" x="1582" y="-85.8" font-family="Times,serif" font-size="14.00" fill="#ffffff">7486</text>
</g>
<!-- 7482&#45;&gt;7486 -->
<g id="edge61" class="edge">
<title>7482-&gt;7486</title>
<path fill="none" stroke="#000000" d="M1519.7539,-146.7307C1530.7514,-136.7075 1545.3175,-123.4321 1557.594,-112.2434"/>
<polygon fill="#000000" stroke="#000000" points="1560.237,-114.5702 1565.2703,-105.2473 1555.5217,-109.3966 1560.237,-114.5702"/>
</g>
<!-- 7398 -->
<g id="node61" class="node">
<title>7398</title>
<ellipse fill="#ff0000" stroke="#000000" cx="1503" cy="-18" rx="30.2015" ry="18"/>
<text text-anchor="middle" x="1503" y="-13.8" font-family="Times,serif" font-size="14.00" fill="#ffffff">7398</text>
</g>
<!-- 7201&#45;&gt;7398 -->
<g id="edge60" class="edge">
<title>7201-&gt;7398</title>
<path fill="none" stroke="#000000" d="M1503,-71.8314C1503,-64.131 1503,-54.9743 1503,-46.4166"/>
<polygon fill="#000000" stroke="#000000" points="1506.5001,-46.4132 1503,-36.4133 1499.5001,-46.4133 1506.5001,-46.4132"/>
</g>
<!-- 8071 -->
<g id="node65" class="node">
<title>8071</title>
<ellipse fill="#000000" stroke="#000000" cx="1661" cy="-162" rx="30.2015" ry="18"/>
<text text-anchor="middle" x="1661" y="-157.8" font-family="Times,serif" font-size="14.00" fill="#ffffff">8071</text>
</g>
<!-- 8087&#45;&gt;8071 -->
<g id="edge64" class="edge">
<title>8087-&gt;8071</title>
<path fill="none" stroke="#000000" d="M1661,-215.8314C1661,-208.131 1661,-198.9743 1661,-190.4166"/>
<polygon fill="#000000" stroke="#000000" points="1664.5001,-190.4132 1661,-180.4133 1657.5001,-190.4133 1664.5001,-190.4132"/>
</g>
<!-- 8583 -->
<g id="node66" class="node">
<title>8583</title>
<ellipse fill="#000000" stroke="#000000" cx="1740" cy="-162" rx="30.2015" ry="18"/>
<text text-anchor="middle" x="1740" y="-157.8" font-family="Times,serif" font-size="14.00" fill="#ffffff">8583</text>
</g>
<!-- 8087&#45;&gt;8583 -->
<g id="edge65" class="edge">
<title>8087-&gt;8583</title>
<path fill="none" stroke="#000000" d="M1677.7539,-218.7307C1688.7514,-208.7075 1703.3175,-195.4321 1715.594,-184.2434"/>
<polygon fill="#000000" stroke="#000000" points="1718.237,-186.5702 1723.2703,-177.2473 1713.5217,-181.3966 1718.237,-186.5702"/>
</g>
<!-- 8136 -->
<g id="node67" class="node">
<title>8136</title>
<ellipse fill="#ff0000" stroke="#000000" cx="1700" cy="-90" rx="30.2015" ry="18"/>
<text text-anchor="middle" x="1700" y="-85.8" font-family="Times,serif" font-size="14.00" fill="#ffffff">8136</text>
</g>
<!-- 8583&#45;&gt;8136 -->
<g id="edge66" class="edge">
<title>8583-&gt;8136</title>
<path fill="none" stroke="#000000" d="M1730.3171,-144.5708C1725.6004,-136.0807 1719.8294,-125.6929 1714.593,-116.2674"/>
<polygon fill="#000000" stroke="#000000" points="1717.5097,-114.3105 1709.5937,-107.2687 1711.3906,-117.71 1717.5097,-114.3105"/>
</g>
<!-- 8682 -->
<g id="node68" class="node">
<title>8682</title>
<ellipse fill="#ff0000" stroke="#000000" cx="1779" cy="-90" rx="30.2015" ry="18"/>
<text text-anchor="middle" x="1779" y="-85.8" font-family="Times,serif" font-size="14.00" fill="#ffffff">8682</text>
</g>
<!-- 8583&#45;&gt;8682 -->
<g id="edge67" class="edge">
<title>8583-&gt;8682</title>
<path fill="none" stroke="#000000" d="M1749.4408,-144.5708C1754.0396,-136.0807 1759.6664,-125.6929 1764.7718,-116.2674"/>
<polygon fill="#000000" stroke="#000000" points="1767.9608,-117.7286 1769.6461,-107.2687 1761.8057,-114.3946 1767.9608,-117.7286"/>
</g>
<!-- 8827 -->
<g id="node70" class="node">
<title>8827</title>
<ellipse fill="#000000" stroke="#000000" cx="1819" cy="-234" rx="30.2015" ry="18"/>
<text text-anchor="middle" x="1819" y="-229.8" font-family="Times,serif" font-size="14.00" fill="#ffffff">8827</text>
</g>
<!-- 9348&#45;&gt;8827 -->
<g id="edge69" class="edge">
<title>9348-&gt;8827</title>
<path fill="none" stroke="#000000" d="M1819,-287.8314C1819,-280.131 1819,-270.9743 1819,-262.4166"/>
<polygon fill="#000000" stroke="#000000" points="1822.5001,-262.4132 1819,-252.4133 1815.5001,-262.4133 1822.5001,-262.4132"/>
</g>
<!-- 9355 -->
<g id="node72" class="node">
<title>9355</title>
<ellipse fill="#000000" stroke="#000000" cx="1898" cy="-234" rx="30.2015" ry="18"/>
<text text-anchor="middle" x="1898" y="-229.8" font-family="Times,serif" font-size="14.00" fill="#ffffff">9355</text>
</g>
<!-- 9348&#45;&gt;9355 -->
<g id="edge71" class="edge">
<title>9348-&gt;9355</title>
<path fill="none" stroke="#000000" d="M1835.7539,-290.7307C1846.7514,-280.7075 1861.3175,-267.4321 1873.594,-256.2434"/>
<polygon fill="#000000" stroke="#000000" points="1876.237,-258.5702 1881.2703,-249.2473 1871.5217,-253.3966 1876.237,-258.5702"/>
</g>
<!-- 8942 -->
<g id="node71" class="node">
<title>8942</title>
<ellipse fill="#ff0000" stroke="#000000" cx="1819" cy="-162" rx="30.2015" ry="18"/>
<text text-anchor="middle" x="1819" y="-157.8" font-family="Times,serif" font-size="14.00" fill="#ffffff">8942</text>
</g>
<!-- 8827&#45;&gt;8942 -->
<g id="edge70" class="edge">
<title>8827-&gt;8942</title>
<path fill="none" stroke="#000000" d="M1819,-215.8314C1819,-208.131 1819,-198.9743 1819,-190.4166"/>
<polygon fill="#000000" stroke="#000000" points="1822.5001,-190.4132 1819,-180.4133 1815.5001,-190.4133 1822.5001,-190.4132"/>
</g>
<!-- 9890 -->
<g id="node73" class="node">
<title>9890</title>
<ellipse fill="#ff0000" stroke="#000000" cx="1898" cy="-162" rx="30.2015" ry="18"/>
<text text-anchor="middle" x="1898" y="-157.8" font-family="Times,serif" font-size="14.00" fill="#ffffff">9890</text>
</g>
<!-- 9355&#45;&gt;9890 -->
<g id="edge72" class="edge">
<title>9355-&gt;9890</title>
<path fill="none" stroke="#000000" d="M1898,-215.8314C1898,-208.131 1898,-198.9743 1898,-190.4166"/>
<polygon fill="#000000" stroke="#000000" points="1901.5001,-190.4132 1898,-180.4133 1894.5001,-190.4133 1901.5001,-190.4132"/>
</g>
</g>
</svg>